<svg width="24" height="24" viewBox="0 0 24 24" fill="none" xmlns="http://www.w3.org/2000/svg">
<path d="M17.25 12.7685C17.3246 12.7685 17.3961 12.7388 17.4489 12.6861C17.5016 12.6333 17.5312 12.5618 17.5312 12.4872V12.1919C17.5312 12.1173 17.5016 12.0458 17.4489 11.993C17.3961 11.9403 17.3246 11.9106 17.25 11.9106C17.1754 11.9106 17.1039 11.9403 17.0511 11.993C16.9984 12.0458 16.9688 12.1173 16.9688 12.1919V12.4872C16.9688 12.5618 16.9984 12.6333 17.0511 12.6861C17.1039 12.7388 17.1754 12.7685 17.25 12.7685ZM17.25 15.4872C17.3246 15.4872 17.3961 15.4576 17.4489 15.4048C17.5016 15.3521 17.5312 15.2805 17.5312 15.206V13.3778C17.5312 13.3032 17.5016 13.2317 17.4489 13.179C17.3961 13.1262 17.3246 13.0966 17.25 13.0966C17.1754 13.0966 17.1039 13.1262 17.0511 13.179C16.9984 13.2317 16.9688 13.3032 16.9688 13.3778V15.206C16.9688 15.2805 16.9984 15.3521 17.0511 15.4048C17.1039 15.4576 17.1754 15.4872 17.25 15.4872Z" fill="#290247"/>
<path d="M23.6096 10.944L21.1946 8.31469C21.0803 8.19071 20.9415 8.09179 20.7869 8.02418C20.6324 7.95657 20.4656 7.92173 20.2969 7.92188H15.9717C15.9356 7.92171 15.8999 7.92885 15.8666 7.94285C15.8334 7.95686 15.8033 7.97744 15.7782 8.00337C15.7531 8.0293 15.7335 8.06003 15.7206 8.09372C15.7077 8.12742 15.7018 8.16337 15.7031 8.19942V12.6562H14.8594V6.55805C14.8592 6.33682 14.8155 6.11779 14.7306 5.91347C14.6458 5.70916 14.5216 5.52355 14.365 5.36726C14.2084 5.21097 14.0226 5.08705 13.8181 5.00259C13.6136 4.91813 13.3945 4.87477 13.1733 4.875H2.00392C1.78324 4.87497 1.56472 4.91854 1.36092 5.0032C1.15712 5.08786 0.972046 5.21195 0.816335 5.36834C0.660624 5.52472 0.537339 5.71033 0.453561 5.91449C0.369782 6.11866 0.32716 6.33736 0.328142 6.55805V17.2078C0.328204 17.2811 0.357361 17.3515 0.409213 17.4033C0.461065 17.4552 0.531374 17.4843 0.604704 17.4844H2.46944C2.5366 17.9407 2.76562 18.3576 3.11469 18.6591C3.46376 18.9605 3.90961 19.1264 4.37083 19.1264C4.83205 19.1264 5.27789 18.9605 5.62697 18.6591C5.97604 18.3576 6.20506 17.9407 6.27222 17.4844H17.7513C17.8188 17.9403 18.048 18.3567 18.397 18.6578C18.7459 18.9589 19.1915 19.1245 19.6524 19.1245C20.1133 19.1245 20.5588 18.9589 20.9078 18.6578C21.2567 18.3567 21.4859 17.9403 21.5535 17.4844H22.4649C22.624 17.4845 22.7816 17.4531 22.9285 17.392C23.0755 17.331 23.2089 17.2414 23.3211 17.1286C23.4333 17.0157 23.522 16.8818 23.5822 16.7345C23.6424 16.5872 23.6729 16.4294 23.6719 16.2703V11.1342C23.674 11.0645 23.6495 10.9966 23.6035 10.9443L23.6096 10.944ZM12 5.4375H13.1733C13.3207 5.43719 13.4667 5.46594 13.6029 5.52211C13.7392 5.57828 13.8631 5.66076 13.9674 5.76483C14.0718 5.8689 14.1546 5.99253 14.2111 6.12864C14.2677 6.26475 14.2968 6.41066 14.2969 6.55805V12.6562H12V5.4375ZM9.18752 5.4375H11.4375V12.6562H9.18752V5.4375ZM6.37502 5.4375H8.62502V12.6562H6.37502V5.4375ZM3.56252 5.4375H5.81252V12.6562H3.56252V5.4375ZM0.890642 6.55805C0.889584 6.41121 0.917604 6.26562 0.973087 6.12966C1.02857 5.99371 1.11042 5.87008 1.21391 5.76592C1.3174 5.66175 1.44049 5.5791 1.57609 5.52273C1.71168 5.46636 1.85708 5.4374 2.00392 5.4375H3.00002V12.6562H0.890642V6.55805ZM4.37111 18.5672C4.10225 18.5672 3.83943 18.4875 3.61588 18.3381C3.39233 18.1887 3.2181 17.9764 3.11521 17.728C3.01232 17.4796 2.9854 17.2063 3.03786 16.9426C3.09031 16.6789 3.21977 16.4367 3.40989 16.2466C3.6 16.0565 3.84222 15.927 4.10591 15.8746C4.3696 15.8221 4.64293 15.849 4.89132 15.9519C5.13971 16.0548 5.35202 16.229 5.50139 16.4526C5.65076 16.6761 5.73048 16.939 5.73048 17.2078C5.73008 17.5682 5.58672 17.9137 5.33188 18.1686C5.07704 18.4234 4.73151 18.5668 4.37111 18.5672ZM15.7031 14.2969H13.125C13.0504 14.2969 12.9789 14.3265 12.9261 14.3793C12.8734 14.432 12.8438 14.5035 12.8438 14.5781C12.8438 14.6527 12.8734 14.7243 12.9261 14.777C12.9789 14.8297 13.0504 14.8594 13.125 14.8594H15.7031V16.9219H6.27222C6.20418 16.4664 5.97486 16.0505 5.626 15.7499C5.27715 15.4493 4.83195 15.284 4.37144 15.284C3.91093 15.284 3.46573 15.4493 3.11687 15.7499C2.76802 16.0505 2.5387 16.4664 2.47066 16.9219H0.890642V14.8594H11.25C11.3246 14.8594 11.3961 14.8297 11.4489 14.777C11.5016 14.7243 11.5313 14.6527 11.5313 14.5781C11.5313 14.5035 11.5016 14.432 11.4489 14.3793C11.3961 14.3265 11.3246 14.2969 11.25 14.2969H0.890642V13.2188H15.7031V14.2969ZM19.7344 8.48438H20.2969C20.3884 8.48619 20.4785 8.5068 20.5617 8.54494C20.6448 8.58307 20.7193 8.63791 20.7804 8.70605L22.7625 10.875H19.7344V8.48438ZM18.6094 8.48438H19.1719V10.875H18.6094V8.48438ZM16.2656 8.48438H18.0469V10.875H16.2656V8.48438ZM19.6524 18.5672C19.3835 18.5672 19.1207 18.4875 18.8971 18.3381C18.6736 18.1887 18.4993 17.9764 18.3965 17.728C18.2936 17.4796 18.2667 17.2063 18.3191 16.9426C18.3716 16.6789 18.501 16.4367 18.6911 16.2466C18.8812 16.0565 19.1235 15.927 19.3872 15.8746C19.6509 15.8221 19.9242 15.849 20.1726 15.9519C20.421 16.0548 20.6333 16.229 20.7826 16.4526C20.932 16.6761 21.0117 16.939 21.0117 17.2078C21.0113 17.5682 20.868 17.9137 20.6131 18.1686C20.3583 18.4234 20.0128 18.5668 19.6524 18.5672ZM23.1094 13.5938H22.3125V12.7031H23.1094V13.5938ZM23.1094 12.1406H22.2385C22.1106 12.1435 21.9886 12.1954 21.8977 12.2855C21.8069 12.3756 21.754 12.4972 21.75 12.6251V13.6651C21.7538 13.7937 21.8064 13.9161 21.8971 14.0073C21.9878 14.0985 22.1099 14.1518 22.2385 14.1562H23.1094V16.2703C23.1105 16.3556 23.0946 16.4402 23.0627 16.5193C23.0308 16.5984 22.9835 16.6704 22.9235 16.731C22.8635 16.7916 22.7921 16.8397 22.7133 16.8725C22.6346 16.9053 22.5501 16.9221 22.4649 16.9219H21.5535C21.4859 16.466 21.2567 16.0495 20.9078 15.7485C20.5588 15.4474 20.1133 15.2818 19.6524 15.2818C19.1915 15.2818 18.7459 15.4474 18.397 15.7485C18.048 16.0495 17.8188 16.466 17.7513 16.9219H16.2656V11.4375H23.1094V12.1406Z" fill="#290247"/>
</svg>
