<svg width="23" height="21" viewBox="0 0 23 21" fill="none" xmlns="http://www.w3.org/2000/svg">
<path d="M22.6155 4.47334L7.12516 3.55107V3.03517C7.12516 2.08131 6.35899 1.29053 5.40513 1.29053H4.87516V0.684949C4.87308 0.608961 4.84156 0.536754 4.78725 0.483569C4.73294 0.430384 4.66008 0.400385 4.58407 0.399902H0.271568C0.234961 0.400568 0.198849 0.408495 0.165329 0.423225C0.131809 0.437955 0.101548 0.459195 0.0763001 0.485711C0.0510525 0.512228 0.0313214 0.543494 0.0182514 0.577695C0.00518147 0.611897 -0.000967197 0.648353 0.000162083 0.684949V2.45303C-0.00236771 2.52755 0.0248014 2.60003 0.075696 2.65453C0.126591 2.70903 0.197045 2.74109 0.271568 2.74365H4.58407C4.66063 2.74186 4.73356 2.71068 4.78775 2.65657C4.84195 2.60247 4.87324 2.52958 4.87516 2.45303V1.85303H5.40513C6.04882 1.85303 6.56266 2.39148 6.56266 3.03517V15.1584C6.56439 15.6479 6.73203 16.1223 7.03823 16.5042C7.34442 16.8862 7.77106 17.153 8.24848 17.2611C8.0381 17.4426 7.87667 17.6741 7.779 17.9342C7.68132 18.1943 7.65053 18.4748 7.68945 18.7499C7.72836 19.025 7.83574 19.286 8.00173 19.5088C8.16771 19.7316 8.387 19.9092 8.63946 20.0252C8.89192 20.1413 9.16949 20.1921 9.44668 20.1729C9.72388 20.1538 9.99184 20.0654 10.226 19.9158C10.4601 19.7662 10.6529 19.5602 10.7867 19.3166C10.9205 19.0731 10.9911 18.7999 10.9918 18.5221C10.9918 18.0483 10.7925 17.603 10.473 17.3217H18.4716C18.1521 17.603 17.9522 18.0483 17.9522 18.5221C17.9521 18.962 18.1267 19.384 18.4378 19.6952C18.7488 20.0064 19.1707 20.1812 19.6106 20.1814C20.0506 20.1815 20.4726 20.0068 20.7837 19.6958C21.0949 19.3848 21.2698 18.9629 21.2699 18.5229C21.2699 18.0492 21.07 17.603 20.7505 17.3217H21.0398C21.1144 17.3217 21.1859 17.2921 21.2387 17.2394C21.2914 17.1866 21.3211 17.1151 21.3211 17.0405C21.3211 16.9659 21.2914 16.8944 21.2387 16.8416C21.1859 16.7889 21.1144 16.7592 21.0398 16.7592H8.72876C8.30446 16.7575 7.89799 16.5884 7.59771 16.2886C7.29742 15.9888 7.1276 15.5827 7.12516 15.1584V14.362L20.94 13.1479C21.4716 13.0953 21.9645 12.8463 22.3223 12.4496C22.6802 12.053 22.8773 11.5372 22.8752 11.003V4.75403C22.8762 4.68284 22.8499 4.61398 22.8015 4.56172C22.7532 4.50946 22.6866 4.47781 22.6155 4.47334ZM4.31266 2.18115H0.562662V0.962402H4.31266V2.18115ZM19.6111 17.4221C19.8279 17.4221 20.0399 17.4864 20.2202 17.6069C20.4005 17.7274 20.541 17.8986 20.624 18.0989C20.707 18.2993 20.7287 18.5197 20.6864 18.7324C20.6441 18.9451 20.5396 19.1404 20.3863 19.2937C20.233 19.4471 20.0376 19.5515 19.825 19.5938C19.6123 19.6361 19.3918 19.6144 19.1915 19.5314C18.9912 19.4484 18.8199 19.3079 18.6995 19.1276C18.579 18.9473 18.5147 18.7353 18.5147 18.5185C18.515 18.2278 18.6306 17.9491 18.8362 17.7436C19.0417 17.5381 19.3204 17.4225 19.6111 17.4221ZM9.33358 17.4221C9.55042 17.4221 9.76239 17.4864 9.94269 17.6069C10.123 17.7274 10.2635 17.8986 10.3465 18.0989C10.4295 18.2993 10.4512 18.5197 10.4089 18.7324C10.3666 18.9451 10.2622 19.1404 10.1088 19.2937C9.9555 19.4471 9.76015 19.5515 9.54747 19.5938C9.3348 19.6361 9.11436 19.6144 8.91403 19.5314C8.71369 19.4484 8.54246 19.3079 8.422 19.1276C8.30153 18.9473 8.23722 18.7353 8.23722 18.5185C8.23755 18.2278 8.35316 17.9491 8.5587 17.7436C8.76423 17.5381 9.04291 17.4225 9.33358 17.4221ZM9.00016 13.632L7.12516 13.7971V6.271L9.00016 6.38284V13.632ZM14.6252 13.1379L12.3752 13.3355V6.58375L14.6252 6.71767V13.1379ZM17.4377 12.8908L15.1877 13.0884V6.75095L17.4377 6.88492V12.8908ZM19.7814 12.6849L18.0002 12.8414V6.91857L19.7814 7.02461V12.6849ZM22.3127 11.003C22.3139 11.3976 22.1682 11.7785 21.904 12.0715C21.6398 12.3646 21.2759 12.5488 20.8833 12.5883L20.3439 12.6355V7.05807L22.3127 7.17526V11.003ZM22.3127 6.61192L11.7307 5.98009C11.6548 5.97897 11.5814 6.00753 11.5263 6.05968C11.4711 6.11182 11.4385 6.18344 11.4354 6.25928H11.4366C11.4369 6.33031 11.4638 6.39865 11.5119 6.45088C11.5601 6.50311 11.626 6.53545 11.6968 6.54156L11.8128 6.55028V13.3849L9.5628 13.5826V6.41636L9.82244 6.4315C9.86085 6.43382 9.89932 6.4283 9.93552 6.41527C9.97172 6.40224 10.0049 6.38197 10.033 6.3557C10.0611 6.32943 10.0836 6.29771 10.099 6.26248C10.1145 6.22725 10.1226 6.18923 10.1229 6.15076C10.1231 6.07919 10.096 6.01023 10.047 5.95802C9.99809 5.90581 9.93101 5.87431 9.85957 5.86998L7.12516 5.70723V4.11479L22.3127 5.01901V6.61192Z" fill="#290247"/>
</svg>
