<svg width="22" height="22" viewBox="0 0 22 22" fill="none" xmlns="http://www.w3.org/2000/svg">
<path d="M20.1794 0.420878C20.1561 0.374048 20.1201 0.334685 20.0755 0.307247C20.031 0.279809 19.9797 0.265392 19.9273 0.265628H7.29495C7.24263 0.265392 7.19129 0.279809 7.14675 0.307247C7.1022 0.334685 7.06623 0.374048 7.0429 0.420878L5.39956 3.74C5.3537 3.79185 5.32835 3.85866 5.32826 3.92788V13.8928C5.07841 14.0436 4.86831 14.252 4.71554 14.5006C4.56278 14.7493 4.47179 15.0309 4.4502 15.3219C4.29292 15.4418 4.11577 15.5332 3.92684 15.5917L3.92595 15.5848C3.89806 15.4929 3.84148 15.4123 3.76449 15.3549C3.68749 15.2974 3.59413 15.2662 3.49807 15.2656H0.560416C0.491197 15.2659 0.422978 15.2822 0.361066 15.3131C0.299153 15.3441 0.245216 15.3889 0.203451 15.4441C0.161685 15.4993 0.133216 15.5634 0.120259 15.6314C0.107302 15.6994 0.110205 15.7695 0.128744 15.8361L1.68087 21.4074C1.70739 21.5015 1.76392 21.5844 1.84186 21.6434C1.91979 21.7024 2.01487 21.7344 2.11263 21.7344H5.22092C5.29085 21.7346 5.35987 21.7185 5.42241 21.6872C5.48495 21.6559 5.53926 21.6103 5.58097 21.5542C5.62267 21.4981 5.65061 21.4329 5.66252 21.364C5.67443 21.2951 5.66999 21.2244 5.64954 21.1575L5.24492 19.8309L6.71023 18.9048C6.89898 18.8009 7.12011 18.7725 7.32898 18.8254C7.33742 18.8275 7.34595 18.8293 7.35453 18.8306L9.94174 19.2306C10.6851 19.3457 11.4449 19.1859 12.0789 18.7811L17.1462 15.5469H21.6068C21.6779 15.5469 21.7462 15.5186 21.7965 15.4683C21.8469 15.4179 21.8751 15.3497 21.8751 15.2785V4.02055C21.8968 3.95164 21.8909 3.87705 21.8589 3.81233L20.1794 0.420878ZM13.9064 0.828128H19.7527L21.1462 3.64063H13.9064V0.828128ZM13.6111 4.21836C13.6419 4.21831 13.6726 4.21316 13.7018 4.20313H15.5939V6.21875H11.797V4.20313H13.5204C13.5496 4.21315 13.5802 4.2183 13.6111 4.21836ZM2.19945 21.1719L0.711072 15.8281H3.40638L5.04701 21.1719H2.19945ZM11.7762 18.3164C11.257 18.6461 10.6354 18.7752 10.0278 18.6794L7.45278 18.2788C7.10632 18.1944 6.74075 18.2443 6.42959 18.4184C6.42523 18.4209 6.42087 18.4231 6.4166 18.4256L5.07321 19.2745L4.09371 16.1234C4.39666 16.0273 4.67598 15.8686 4.91351 15.6574C4.94292 15.6331 4.96662 15.6026 4.9829 15.5681C4.99919 15.5336 5.00766 15.496 5.00773 15.4578C5.00813 15.2902 5.0416 15.1244 5.10624 14.9697C5.17088 14.8151 5.2654 14.6748 5.3844 14.5567C5.50339 14.4387 5.64451 14.3454 5.79966 14.282C5.95482 14.2186 6.12095 14.1865 6.28854 14.1875H6.37638C6.65059 14.186 6.92102 14.1235 7.16802 14.0044C7.41502 13.8853 7.63237 13.7126 7.80429 13.499L8.91856 12.1276C9.02598 11.9941 9.17965 11.9057 9.34912 11.8801C9.51859 11.8544 9.69152 11.8934 9.83365 11.9892L9.8524 12.0004C9.9975 12.0975 10.1023 12.2441 10.1471 12.4128C10.192 12.5816 10.1739 12.7609 10.0961 12.9172C9.65084 13.8025 8.98863 15.1204 8.98863 15.1204C8.9671 15.1649 8.95693 15.2141 8.95901 15.2635C8.9611 15.313 8.97538 15.3611 9.00059 15.4037C9.02528 15.4457 9.06013 15.4809 9.10194 15.5059C9.14376 15.5309 9.19119 15.545 9.23988 15.5469H16.131L11.7762 18.3164ZM11.9376 14.9844V12.2984L12.1237 12.4931C12.1498 12.5205 12.1812 12.5423 12.216 12.5574C12.2507 12.5724 12.2881 12.5803 12.326 12.5807C12.3638 12.5808 12.4012 12.5733 12.4362 12.5589C12.4711 12.5444 12.5028 12.5231 12.5294 12.4963L13.02 11.9964L13.5042 12.4953C13.5304 12.5223 13.5617 12.5438 13.5964 12.5585C13.6311 12.5732 13.6684 12.5807 13.706 12.5807C13.7437 12.5807 13.7809 12.5732 13.8156 12.5585C13.8503 12.5438 13.8817 12.5223 13.9079 12.4953L14.392 11.9965L14.8824 12.4964C14.9089 12.5233 14.9406 12.5446 14.9755 12.5591C15.0103 12.5736 15.0478 12.5809 15.0855 12.5808C15.1219 12.5804 15.1578 12.5724 15.1909 12.5573C15.224 12.5422 15.2536 12.5203 15.2777 12.4932L15.4533 12.2984V14.9844H11.9376ZM21.3126 14.9844H16.0158V11.5935C16.0179 11.538 16.0029 11.4832 15.9728 11.4365C15.9428 11.3897 15.8991 11.3533 15.8477 11.3322C15.7963 11.3111 15.7397 11.3063 15.6855 11.3184C15.6313 11.3305 15.5821 11.3589 15.5445 11.3999L15.0776 11.8942L14.5908 11.4045C14.5644 11.3789 14.5331 11.359 14.4988 11.3458C14.4645 11.3327 14.4279 11.3267 14.3912 11.3281H14.3904C14.3534 11.3267 14.3165 11.3329 14.2819 11.3462C14.2473 11.3595 14.2158 11.3797 14.1893 11.4056L13.7065 11.8994L13.2237 11.4076C13.1973 11.3814 13.1659 11.3609 13.1313 11.3472C13.0967 11.3336 13.0598 11.3271 13.0226 11.3281H13.0219C12.985 11.3267 12.9482 11.3327 12.9137 11.3458C12.8792 11.359 12.8477 11.3789 12.8211 11.4045L12.3329 11.8982L11.8636 11.4019C11.8249 11.3607 11.7748 11.3321 11.7197 11.3197C11.6646 11.3073 11.6071 11.3117 11.5545 11.3323C11.5019 11.3529 11.4567 11.3889 11.4247 11.4354C11.3928 11.482 11.3755 11.5371 11.3751 11.5935V14.9844H9.69593C9.92717 14.5156 10.3089 13.7551 10.5986 13.1789C10.7376 12.8993 10.7704 12.5787 10.6908 12.2767C10.6113 11.9748 10.4249 11.7119 10.1661 11.537L10.1474 11.5221C9.88957 11.347 9.57535 11.275 9.267 11.3205C8.95864 11.3661 8.67864 11.5258 8.48248 11.768L7.36826 13.1441C7.24898 13.2928 7.09808 13.4131 6.92652 13.4963C6.75496 13.5795 6.56704 13.6235 6.37638 13.625H6.28854C6.15478 13.6251 6.02142 13.6396 5.89076 13.6682V4.20313H7.62513C7.69973 4.20313 7.77126 4.1735 7.82401 4.12075C7.87675 4.06801 7.90638 3.99647 7.90638 3.92188C7.90638 3.84729 7.87675 3.77575 7.82401 3.723C7.77126 3.67026 7.69973 3.64063 7.62513 3.64063H6.0761L7.46956 0.828128H13.3439V3.64063H9.50013C9.42554 3.64063 9.354 3.67026 9.30126 3.723C9.24852 3.77575 9.21888 3.84729 9.21888 3.92188C9.21888 3.99647 9.24852 4.06801 9.30126 4.12075C9.354 4.1735 9.42554 4.20313 9.50013 4.20313H11.2345V6.48988C11.2339 6.56544 11.2629 6.63822 11.3153 6.69267C11.3677 6.74712 11.4393 6.77892 11.5149 6.78125H15.8973C16.0526 6.78125 16.1564 6.64531 16.1564 6.48988V4.20313H21.3126V14.9844Z" fill="#290247"/>
</svg>
