<svg width="24" height="24" viewBox="0 0 24 24" fill="none" xmlns="http://www.w3.org/2000/svg">
<path fill-rule="evenodd" clip-rule="evenodd" d="M10.663 18.3415C6.42252 18.3415 2.98499 14.9039 2.98499 10.6634C2.98499 6.42289 6.42252 2.98535 10.663 2.98535C14.9036 2.98535 18.3411 6.42289 18.3411 10.6634C18.3411 12.4711 17.7164 14.1337 16.6709 15.4451C16.7149 15.4683 16.7573 15.4956 16.7977 15.5263C16.8294 15.5501 16.8597 15.5767 16.8887 15.606L22.2191 20.9365C22.5736 21.2909 22.5736 21.8656 22.2191 22.22C21.8649 22.5738 21.2902 22.5738 20.9359 22.22L15.6055 16.8896C15.5395 16.8234 15.4857 16.7498 15.4443 16.6714C14.1324 17.7171 12.4708 18.3415 10.663 18.3415ZM16.9451 10.6634C16.9451 14.133 14.1324 16.9454 10.663 16.9454C7.19363 16.9454 4.381 14.133 4.381 10.6634C4.381 7.19383 7.19363 4.38136 10.663 4.38136C14.1324 4.38136 16.9451 7.19383 16.9451 10.6634Z" fill="#303030"/>
</svg>
