<svg width="24" height="24" viewBox="0 0 24 24" fill="none" xmlns="http://www.w3.org/2000/svg">
<g clip-path="url(#clip0_48_7776)">
<path d="M12 23.3511C9.75489 23.3511 7.56022 22.6854 5.6935 21.4381C3.82678 20.1908 2.37185 18.418 1.5127 16.3438C0.653539 14.2696 0.428744 11.9872 0.866739 9.78525C1.30473 7.58331 2.38584 5.56069 3.97336 3.97318C5.56087 2.38566 7.58349 1.30455 9.78544 0.866556C11.9874 0.428561 14.2698 0.653356 16.344 1.51251C18.4181 2.37167 20.191 3.8266 21.4383 5.69332C22.6856 7.56004 23.3513 9.75471 23.3513 11.9998C23.3479 15.0093 22.1508 17.8946 20.0228 20.0226C17.8948 22.1507 15.0095 23.3477 12 23.3511ZM12 1.29709C9.88318 1.29709 7.81392 1.92479 6.05387 3.10082C4.29382 4.27685 2.92203 5.94838 2.11197 7.90405C1.30191 9.85971 1.08996 12.0117 1.50292 14.0878C1.91589 16.1639 2.93522 18.0709 4.43202 19.5677C5.92882 21.0645 7.83586 22.0839 9.91198 22.4968C11.9881 22.9098 14.1401 22.6979 16.0957 21.8878C18.0514 21.0777 19.7229 19.7059 20.8989 17.9459C22.075 16.1858 22.7027 14.1166 22.7027 11.9998C22.6994 9.16226 21.5708 6.44188 19.5643 4.43544C17.5579 2.429 14.8375 1.30035 12 1.29709Z" fill="black"/>
<path d="M12 13.6217C11.2302 13.6217 10.4778 13.3934 9.83777 12.9658C9.19775 12.5381 8.69892 11.9303 8.40435 11.2191C8.10978 10.508 8.03271 9.72547 8.18288 8.97051C8.33305 8.21556 8.70371 7.52209 9.248 6.9778C9.79229 6.43351 10.4858 6.06284 11.2407 5.91267C11.9957 5.7625 12.7782 5.83958 13.4893 6.13414C14.2005 6.42871 14.8083 6.92755 15.236 7.56756C15.6636 8.20758 15.8919 8.96004 15.8919 9.72978C15.8908 10.7616 15.4804 11.7509 14.7507 12.4805C14.0211 13.2102 13.0318 13.6206 12 13.6217ZM12 6.48654C11.3585 6.48654 10.7315 6.67675 10.1981 7.03313C9.66479 7.3895 9.24909 7.89602 9.00362 8.48865C8.75815 9.08127 8.69392 9.73338 8.81906 10.3625C8.9442 10.9916 9.25309 11.5695 9.70667 12.0231C10.1602 12.4767 10.7381 12.7856 11.3673 12.9107C11.9964 13.0359 12.6485 12.9716 13.2411 12.7261C13.8337 12.4807 14.3403 12.065 14.6966 11.5316C15.053 10.9983 15.2432 10.3712 15.2432 9.72978C15.2423 8.86991 14.9003 8.04553 14.2923 7.43751C13.6842 6.82949 12.8599 6.48748 12 6.48654Z" fill="black"/>
<path d="M19.4594 20.4321H18.8108C18.8108 18.6258 18.0932 16.8934 16.816 15.6161C15.5387 14.3389 13.8063 13.6213 12 13.6213C10.1936 13.6213 8.46129 14.3389 7.18402 15.6161C5.90674 16.8934 5.18918 18.6258 5.18918 20.4321H4.54053C4.54053 18.4537 5.32643 16.5564 6.72535 15.1575C8.12427 13.7586 10.0216 12.9727 12 12.9727C13.9784 12.9727 15.8757 13.7586 17.2746 15.1575C18.6735 16.5564 19.4594 18.4537 19.4594 20.4321Z" fill="black"/>
</g>
<defs>
<clipPath id="clip0_48_7776">
<rect width="24" height="24" fill="white"/>
</clipPath>
</defs>
</svg>
