<svg width="14" height="14" viewBox="0 0 14 14" fill="none" xmlns="http://www.w3.org/2000/svg">
<path fill-rule="evenodd" clip-rule="evenodd" d="M6.10869 11.2276C3.28168 11.2276 0.98999 8.93595 0.98999 6.10894C0.98999 3.28193 3.28168 0.990234 6.10869 0.990234C8.9357 0.990234 11.2274 3.28193 11.2274 6.10894C11.2274 7.31409 10.8109 8.42244 10.1139 9.29677C10.1432 9.31222 10.1715 9.33039 10.1985 9.35084C10.2196 9.36675 10.2398 9.38447 10.2591 9.40401L13.8128 12.9577C14.0491 13.194 14.0491 13.577 13.8128 13.8133C13.5766 14.0492 13.1935 14.0492 12.9573 13.8133L9.40365 10.2597C9.35969 10.2156 9.32379 10.1665 9.29618 10.1143C8.42163 10.8114 7.31384 11.2276 6.10869 11.2276ZM10.2967 6.10894C10.2967 8.42199 8.42163 10.297 6.10869 10.297C3.79576 10.297 1.92066 8.42199 1.92066 6.10894C1.92066 3.79589 3.79576 1.92091 6.10869 1.92091C8.42163 1.92091 10.2967 3.79589 10.2967 6.10894Z" fill="#303030"/>
</svg>
